<svg xmlns="http://www.w3.org/2000/svg" width="132.071" height="132.075" viewBox="0 0 132.071 132.075"><g transform="translate(-322 -130.5)"><g transform="translate(411.037 132.011)"><g transform="translate(7.231 7.231)"><path d="M316.41,201.055a14.228,14.228,0,0,0-13.972-13.972,1.329,1.329,0,0,0-.3-.023,1.135,1.135,0,0,0-.28.023,14.228,14.228,0,0,0-13.972,13.972,1.135,1.135,0,0,0-.023.28,1.329,1.329,0,0,0,.023.3,14.26,14.26,0,0,0,13.972,13.972,1.135,1.135,0,0,0,.28.023,1.329,1.329,0,0,0,.3-.023,14.244,14.244,0,0,0,13.972-13.972,1.334,1.334,0,0,0,.023-.3A1.139,1.139,0,0,0,316.41,201.055Zm-13.972,13.972a1.33,1.33,0,0,1-.3.023,1.136,1.136,0,0,1-.28-.023,13.667,13.667,0,0,1-13.388-13.389,1.33,1.33,0,0,1-.023-.3,1.136,1.136,0,0,1,.023-.28,13.635,13.635,0,0,1,13.388-13.388,1.136,1.136,0,0,1,.28-.023,1.329,1.329,0,0,1,.3.023,13.667,13.667,0,0,1,13.389,13.388,1.141,1.141,0,0,1,.023.28,1.335,1.335,0,0,1-.023.3A13.667,13.667,0,0,1,302.438,215.027Z" transform="translate(-287.86 -187.06)" fill="#2b2273"/></g><g transform="translate(14.905 14.905)"><path d="M297.471,190.35v6.321H291.15A6.634,6.634,0,0,1,297.471,190.35Z" transform="translate(-291.15 -190.35)" fill="#2b2273"/><path d="M300.408,196.671h-6.3V190.35A6.613,6.613,0,0,1,300.408,196.671Z" transform="translate(-287.206 -190.35)" fill="#2b2273"/><path d="M297.471,193.31v6.3a6.613,6.613,0,0,1-6.321-6.3Z" transform="translate(-291.15 -186.406)" fill="#2b2273"/><path d="M300.408,193.31a6.591,6.591,0,0,1-6.3,6.3v-6.3Z" transform="translate(-287.206 -186.406)" fill="#2b2273"/></g><g transform="translate(0 21.226)"><rect width="14.905" height="0.583" fill="#2b2273"/><rect width="14.928" height="0.583" transform="translate(28.106)" fill="#2b2273"/></g><g transform="translate(21.226)"><rect width="0.583" height="14.905" fill="#2b2273"/><rect width="0.583" height="14.904" transform="translate(0 28.107)" fill="#2b2273"/></g></g><g transform="translate(326.452 219.564)"><g transform="translate(7.231 7.231)"><path d="M316.41,201.055a14.228,14.228,0,0,0-13.972-13.972,1.329,1.329,0,0,0-.3-.023,1.135,1.135,0,0,0-.28.023,14.228,14.228,0,0,0-13.972,13.972,1.135,1.135,0,0,0-.023.28,1.329,1.329,0,0,0,.023.3,14.26,14.26,0,0,0,13.972,13.972,1.135,1.135,0,0,0,.28.023,1.329,1.329,0,0,0,.3-.023,14.244,14.244,0,0,0,13.972-13.972,1.334,1.334,0,0,0,.023-.3A1.139,1.139,0,0,0,316.41,201.055Zm-13.972,13.972a1.33,1.33,0,0,1-.3.023,1.136,1.136,0,0,1-.28-.023,13.667,13.667,0,0,1-13.388-13.389,1.33,1.33,0,0,1-.023-.3,1.136,1.136,0,0,1,.023-.28,13.635,13.635,0,0,1,13.388-13.388,1.136,1.136,0,0,1,.28-.023,1.329,1.329,0,0,1,.3.023,13.667,13.667,0,0,1,13.389,13.388,1.141,1.141,0,0,1,.023.28,1.335,1.335,0,0,1-.023.3A13.667,13.667,0,0,1,302.438,215.027Z" transform="translate(-287.86 -187.06)" fill="#2b2273"/></g><g transform="translate(14.905 14.905)"><path d="M297.471,190.35v6.321H291.15A6.634,6.634,0,0,1,297.471,190.35Z" transform="translate(-291.15 -190.35)" fill="#2b2273"/><path d="M300.408,196.671h-6.3V190.35A6.613,6.613,0,0,1,300.408,196.671Z" transform="translate(-287.206 -190.35)" fill="#2b2273"/><path d="M297.471,193.31v6.3a6.613,6.613,0,0,1-6.321-6.3Z" transform="translate(-291.15 -186.406)" fill="#2b2273"/><path d="M300.408,193.31a6.591,6.591,0,0,1-6.3,6.3v-6.3Z" transform="translate(-287.206 -186.406)" fill="#2b2273"/></g><g transform="translate(0 21.226)"><rect width="14.905" height="0.583" fill="#2b2273"/><rect width="14.928" height="0.583" transform="translate(28.106)" fill="#2b2273"/></g><g transform="translate(21.226)"><rect width="0.583" height="14.905" fill="#2b2273"/><rect width="0.583" height="14.904" transform="translate(0 28.107)" fill="#2b2273"/></g></g><line y2="51.938" transform="translate(388.778 130.5)" fill="none" stroke="#2b2273" stroke-width="1"/><line x2="51.938" transform="translate(322 197.278)" fill="none" stroke="#2b2273" stroke-width="1"/></g></svg>