<svg xmlns="http://www.w3.org/2000/svg" width="104" height="104" viewBox="0 0 104 104"><g transform="translate(-8 -8)"><path d="M130.065,237.419H126.71V227.355h3.355V224H120v3.355h3.355v10.064H120v3.355h10.065Z" transform="translate(-88.516 -170.71)" fill="#2b2273"/><path d="M83.613,165.806a21.806,21.806,0,1,0-21.806,21.806A21.832,21.832,0,0,0,83.613,165.806Zm-40.258,0a18.452,18.452,0,1,1,18.452,18.452A18.473,18.473,0,0,1,43.355,165.806Z" transform="translate(-25.29 -107.484)" fill="#2b2273"/><path d="M136,192h3.355v3.355H136Z" transform="translate(-101.161 -145.419)" fill="#2b2273"/><path d="M105.29,14.71H63.224a13.4,13.4,0,0,0-23.264.082,8.373,8.373,0,0,0-13.508,6.627c0,.079.013.156.015.233a6.675,6.675,0,0,0-2.957,11.324,28.492,28.492,0,0,0,4.62,52.6V105.29a6.716,6.716,0,0,0,6.71,6.71h3.355a6.716,6.716,0,0,0,6.71-6.71V85.576a28.344,28.344,0,0,0,6.71-3.1v22.82a6.716,6.716,0,0,0,6.71,6.71H105.29a6.716,6.716,0,0,0,6.71-6.71V21.419A6.716,6.716,0,0,0,105.29,14.71ZM65.032,18.065H105.29a3.358,3.358,0,0,1,3.355,3.355v6.71H73.25a8.387,8.387,0,0,0-8.218-10.065c-.146,0-.282.035-.426.044,0-.015-.008-.029-.012-.044ZM24.774,28.129a3.355,3.355,0,0,1,5.856-2.236l2.5-2.238a6.7,6.7,0,0,0-3.293-1.988c0-.084-.03-.164-.03-.248a5.038,5.038,0,0,1,5.032-5.032,4.984,4.984,0,0,1,3.774,1.763,13.39,13.39,0,0,0-.419,3.269h3.355A10.045,10.045,0,0,1,61.337,18.96a8.371,8.371,0,0,0-4.692,7.491H60a5.032,5.032,0,1,1,5.032,5.032H46.059A28.007,28.007,0,0,0,27.3,31.366,3.33,3.33,0,0,1,24.774,28.129ZM11.355,58.323A25.161,25.161,0,1,1,36.516,83.484,25.19,25.19,0,0,1,11.355,58.323ZM41.548,105.29a3.358,3.358,0,0,1-3.355,3.355H34.839a3.358,3.358,0,0,1-3.355-3.355V86.367a27.1,27.1,0,0,0,10.065,0Zm21.615-36.9h38.772V65.032H64.2a28.359,28.359,0,0,0,.616-3.355h23.7V38.194H61.677v6.738a28.7,28.7,0,0,0-9.021-10.093H65.032A8.348,8.348,0,0,0,71.7,31.484h36.947V88.516H54.968V80.025A28.594,28.594,0,0,0,63.164,68.387Zm1.869-10.065V41.548H85.161V58.323Zm40.258,50.323H58.323a3.358,3.358,0,0,1-3.355-3.355V91.871h53.677V105.29A3.358,3.358,0,0,1,105.29,108.645Z" fill="#2b2273"/><path d="M341.032,424a5.032,5.032,0,1,0,5.032,5.032A5.038,5.038,0,0,0,341.032,424Zm0,6.71a1.677,1.677,0,1,1,1.677-1.677A1.678,1.678,0,0,1,341.032,430.71Z" transform="translate(-259.226 -328.774)" fill="#2b2273"/><path d="M408,152h10.065v3.355H408Z" transform="translate(-316.129 -113.806)" fill="#2b2273"/><path d="M408,184h3.355v3.355H408Z" transform="translate(-316.129 -139.097)" fill="#2b2273"/><path d="M440,184h3.355v3.355H440Z" transform="translate(-341.419 -139.097)" fill="#2b2273"/><path d="M408,216h10.065v3.355H408Z" transform="translate(-316.129 -164.387)" fill="#2b2273"/><path d="M408,248h10.065v3.355H408Z" transform="translate(-316.129 -189.677)" fill="#2b2273"/><path d="M264,312h40.258v3.355H264Z" transform="translate(-202.323 -240.258)" fill="#2b2273"/><path d="M440,344h3.355v3.355H440Z" transform="translate(-341.419 -265.548)" fill="#2b2273"/><path d="M408,344h3.355v3.355H408Z" transform="translate(-316.129 -265.548)" fill="#2b2273"/><path d="M264,344h26.839v3.355H264Z" transform="translate(-202.323 -265.548)" fill="#2b2273"/></g></svg>