<svg xmlns="http://www.w3.org/2000/svg" width="78" height="78" viewBox="0 0 78 78"><path d="M70.383,6.7H63.121V4.57a4.57,4.57,0,0,0-9.141,0V6.7H28.387V4.57a4.57,4.57,0,0,0-9.141,0V6.759A1.52,1.52,0,0,0,18.84,6.7H12.77A7.626,7.626,0,0,0,5.153,14.32V40.269a1.523,1.523,0,0,0,3.047,0V22.395H63.121a1.523,1.523,0,1,0,0-3.047H8.2V14.32a4.575,4.575,0,0,1,4.57-4.57h6.07a1.526,1.526,0,0,0,.406-.056v1.961a4.57,4.57,0,0,0,9.141,0V9.75H53.98v1.9a4.57,4.57,0,0,0,9.141,0V9.75h7.262a4.576,4.576,0,0,1,4.57,4.57V72.21a2.743,2.743,0,0,1-5.486,0V68.269a1.524,1.524,0,0,0-1.523-1.523H50.223a1.523,1.523,0,0,0,0,3.047h16.2V72.21a5.755,5.755,0,0,0,.692,2.743H5.789a2.745,2.745,0,0,1-2.742-2.742V69.792h34.1a1.523,1.523,0,0,0,0-3.047H21.924a12.492,12.492,0,1,0-16.279,0H1.523A1.524,1.524,0,0,0,0,68.269v3.942A5.8,5.8,0,0,0,5.789,78H72.21A5.8,5.8,0,0,0,78,72.21V14.32A7.626,7.626,0,0,0,70.383,6.7ZM25.34,11.654a1.523,1.523,0,1,1-3.047,0V4.57a1.523,1.523,0,0,1,3.047,0Zm34.734,0a1.523,1.523,0,0,1-3.047,0V4.57a1.523,1.523,0,0,1,3.047,0ZM4.339,57.281a9.445,9.445,0,1,1,9.445,9.445A9.456,9.456,0,0,1,4.339,57.281Z" fill="#2b2273"/><g transform="translate(68.744 19.348)"><path d="M453.84,127.446a1.522,1.522,0,1,0,.447,1.077A1.534,1.534,0,0,0,453.84,127.446Z" transform="translate(-451.24 -127)" fill="#2b2273"/></g><g transform="translate(42.897 66.746)"><path d="M284.18,438.575a1.524,1.524,0,1,0,.447,1.077A1.533,1.533,0,0,0,284.18,438.575Z" transform="translate(-281.58 -438.13)" fill="#2b2273"/></g><g transform="translate(28.678 46.313)"><path d="M194.034,304a5.789,5.789,0,1,0,5.789,5.789A5.8,5.8,0,0,0,194.034,304Zm0,8.531a2.742,2.742,0,1,1,2.742-2.742A2.745,2.745,0,0,1,194.034,312.531Z" transform="translate(-188.245 -304)" fill="#2b2273"/></g><g transform="translate(42.897 46.313)"><path d="M287.367,304a5.789,5.789,0,1,0,5.789,5.789A5.8,5.8,0,0,0,287.367,304Zm0,8.531a2.742,2.742,0,1,1,2.742-2.742A2.745,2.745,0,0,1,287.367,312.531Z" transform="translate(-281.578 -304)" fill="#2b2273"/></g><g transform="translate(57.115 46.313)"><path d="M380.7,304a5.789,5.789,0,1,0,5.789,5.789A5.8,5.8,0,0,0,380.7,304Zm0,8.531a2.742,2.742,0,1,1,2.742-2.742A2.745,2.745,0,0,1,380.7,312.531Z" transform="translate(-374.912 -304)" fill="#2b2273"/></g><g transform="translate(14.459 30.469)"><path d="M100.7,200a5.789,5.789,0,1,0,5.789,5.789A5.8,5.8,0,0,0,100.7,200Zm0,8.531a2.742,2.742,0,1,1,2.742-2.742A2.745,2.745,0,0,1,100.7,208.531Z" transform="translate(-94.912 -200)" fill="#2b2273"/></g><g transform="translate(42.897 30.469)"><path d="M287.367,200a5.789,5.789,0,1,0,5.789,5.789A5.8,5.8,0,0,0,287.367,200Zm0,8.531a2.742,2.742,0,1,1,2.742-2.742A2.745,2.745,0,0,1,287.367,208.531Z" transform="translate(-281.578 -200)" fill="#2b2273"/></g><g transform="translate(57.115 30.469)"><path d="M380.7,200a5.789,5.789,0,1,0,5.789,5.789A5.8,5.8,0,0,0,380.7,200Zm0,8.531a2.742,2.742,0,1,1,2.742-2.742A2.745,2.745,0,0,1,380.7,208.531Z" transform="translate(-374.912 -200)" fill="#2b2273"/></g><g transform="translate(28.678 30.469)"><path d="M194.034,200a5.789,5.789,0,1,0,5.789,5.789A5.8,5.8,0,0,0,194.034,200Zm0,8.531a2.742,2.742,0,1,1,2.742-2.742A2.745,2.745,0,0,1,194.034,208.531Z" transform="translate(-188.245 -200)" fill="#2b2273"/></g><g transform="translate(7.799 53.122)"><path d="M62.606,349.146a1.524,1.524,0,0,0-2.155,0l-4.961,4.961-1.7-1.7a1.524,1.524,0,0,0-2.155,2.155l2.773,2.773a1.523,1.523,0,0,0,2.154,0l6.039-6.039A1.523,1.523,0,0,0,62.606,349.146Z" transform="translate(-51.194 -348.7)" fill="#2b2273"/></g></svg>