<svg xmlns="http://www.w3.org/2000/svg" width="111.429" height="104" viewBox="0 0 111.429 104"><g transform="translate(-16 -32)"><path d="M110.714,110a1.857,1.857,0,1,1,1.857,1.857A1.857,1.857,0,0,1,110.714,110Zm7.429,1.857A1.857,1.857,0,1,0,116.286,110,1.857,1.857,0,0,0,118.143,111.857ZM81,89.571H62.429a1.857,1.857,0,1,0,0,3.714H81a1.857,1.857,0,1,0,0-3.714ZM64.286,87.714H79.143a1.857,1.857,0,0,0,0-3.714H64.286a1.857,1.857,0,1,0,0,3.714ZM99.571,56.143A1.857,1.857,0,1,0,101.429,58,1.857,1.857,0,0,0,99.571,56.143Zm-5.571,0A1.857,1.857,0,1,0,95.857,58,1.857,1.857,0,0,0,94,56.143Zm33.429-5.571v61.286a5.577,5.577,0,0,1-5.571,5.571H81.72l2.476,7.429a5.583,5.583,0,0,1,1.014,11.12q-.247.022-.5.023h-26a5.583,5.583,0,1,1,.023-11.166q.248,0,.5.023l2.476-7.429H21.571A5.577,5.577,0,0,1,16,111.857V50.571A5.577,5.577,0,0,1,21.571,45H46.056a5.555,5.555,0,0,1,5.23-3.714H55V37.571A5.571,5.571,0,0,1,60.571,32H82.857a5.571,5.571,0,0,1,5.571,5.571v3.714h3.714A5.555,5.555,0,0,1,97.373,45h24.484A5.577,5.577,0,0,1,127.429,50.571ZM57.225,97H86.2l-3.04-16.714h-22.9ZM87.276,82.143h1.152V76.571a1.857,1.857,0,0,0-1.857-1.857H56.857A1.857,1.857,0,0,0,55,76.571v5.571h1.152l.736-4.046a1.856,1.856,0,0,1,1.826-1.525h26A1.856,1.856,0,0,1,86.541,78.1Zm4.867-5.571v5.571h9.286a1.858,1.858,0,0,0,1.857-1.857V65.429H40.143V80.286A1.858,1.858,0,0,0,42,82.143h9.286V76.571A5.571,5.571,0,0,1,56.857,71H86.571A5.571,5.571,0,0,1,92.143,76.571ZM36.429,80.286V56.143H27.143v46.429h89.143V56.143H107V80.286a5.577,5.577,0,0,1-5.571,5.571H87.952l2.3,12.668a1.856,1.856,0,0,1-1.826,2.189H55a1.857,1.857,0,0,1-1.826-2.189l2.3-12.668H42A5.577,5.577,0,0,1,36.429,80.286Zm65-26H42a1.858,1.858,0,0,0-1.857,1.857v5.571h63.143V56.143A1.858,1.858,0,0,0,101.429,54.286ZM88.429,45v5.571H94V46.857A1.857,1.857,0,0,0,92.143,45ZM58.714,50.571h26v-13a1.857,1.857,0,0,0-1.857-1.857H60.571a1.857,1.857,0,0,0-1.857,1.857Zm-9.286,0H55V45H51.286a1.857,1.857,0,0,0-1.857,1.857Zm-29.714,52h3.714V54.286a1.857,1.857,0,0,1,1.857-1.857H37.878A5.538,5.538,0,0,1,42,50.571h3.714V48.714H21.571a1.86,1.86,0,0,0-1.857,1.857Zm39,26a1.857,1.857,0,0,0,0,3.714h26a1.857,1.857,0,0,0,0-3.714Zm21.567-3.714L77.8,117.429H65.624l-2.477,7.429Zm43.433-18.571h-104v5.571a1.86,1.86,0,0,0,1.857,1.857H121.857a1.86,1.86,0,0,0,1.857-1.857Zm0-55.714a1.86,1.86,0,0,0-1.857-1.857H97.714v1.857h3.714a5.538,5.538,0,0,1,4.122,1.857h12.592A1.857,1.857,0,0,1,120,54.286v48.286h3.714Z" fill="#2b2273"/></g></svg>