<svg xmlns="http://www.w3.org/2000/svg" width="104" height="104" viewBox="0 0 104 104"><g transform="translate(-7.8 -7.88)"><path d="M409.935,52.6l-2.372-2.372L398.685,59.1l-2.169-2.169-2.372,2.372,4.541,4.541Z" transform="translate(-305.336 -33.465)" fill="#2b2273"/><path d="M82.091,101.1l-2.684-2.011-8.9,11.871-1.988-1.988-2.372,2.372,4.722,4.724Z" transform="translate(-46.111 -72.084)" fill="#2b2273"/><path d="M98.381,76.654V37.975A15.094,15.094,0,1,0,81.705,21.3H74.9V19.622a8.4,8.4,0,0,0-8.387-8.387h-8.7A5.025,5.025,0,0,0,53.09,7.88H29.606a5.025,5.025,0,0,0-4.724,3.355h-8.7A8.4,8.4,0,0,0,7.8,19.622V93.428a8.4,8.4,0,0,0,8.387,8.387H58.123a5.038,5.038,0,0,0,5.032,5.032H65.07a6.677,6.677,0,0,0,12.943,0h13.9a6.677,6.677,0,0,0,12.943,0h1.916a5.038,5.038,0,0,0,5.032-5.032V84.483l-5.871-7.829ZM96.7,11.235A11.742,11.742,0,1,1,84.961,22.977,11.756,11.756,0,0,1,96.7,11.235ZM74.9,24.654h6.809a15.118,15.118,0,0,0,13.32,13.32v38.68H91.671v-6.71H74.9Zm6.71,55.355V73.3h6.71V96.783H61.477V73.3h6.71v6.71ZM78.252,73.3v3.355h-6.71V73.3ZM58.123,14.59H66.51a5.038,5.038,0,0,1,5.032,5.032V69.945H68.187V21.3a3.358,3.358,0,0,0-3.355-3.355h-6.71ZM27.929,12.912a1.679,1.679,0,0,1,1.677-1.677H53.09a1.679,1.679,0,0,1,1.677,1.677v6.71A1.679,1.679,0,0,1,53.09,21.3H29.606a1.679,1.679,0,0,1-1.677-1.677ZM58.123,96.783v1.677H16.187a5.038,5.038,0,0,1-5.032-5.032V19.622a5.038,5.038,0,0,1,5.032-5.032h8.387v3.355h-6.71A3.358,3.358,0,0,0,14.51,21.3V91.751a3.358,3.358,0,0,0,3.355,3.355H58.123Zm0-26.839V91.751H17.865V21.3h7.018a5.025,5.025,0,0,0,4.724,3.355H53.09A5.025,5.025,0,0,0,57.814,21.3h7.018V69.945Zm6.948,33.548H63.155a1.679,1.679,0,0,1-1.677-1.677v-1.677H67.15A6.683,6.683,0,0,0,65.07,103.493Zm6.471,5.032A3.355,3.355,0,1,1,74.9,105.17,3.358,3.358,0,0,1,71.542,108.525Zm20.367-5.032h-13.9a6.669,6.669,0,0,0-2.08-3.355H93.989a6.683,6.683,0,0,0-2.08,3.355Zm6.471,5.032a3.355,3.355,0,1,1,3.355-3.355A3.358,3.358,0,0,1,98.381,108.525Zm10.065-6.71a1.679,1.679,0,0,1-1.677,1.677h-1.916a6.669,6.669,0,0,0-2.08-3.355h5.673Zm0-5.032H91.671V80.009h12.581l4.194,5.591Z" transform="translate(0 0)" fill="#2b2273"/><path d="M159.8,103.88h21.806v3.355H159.8Z" transform="translate(-120.129 -75.871)" fill="#2b2273"/><path d="M247.8,135.88h3.355v3.355H247.8Z" transform="translate(-189.677 -101.161)" fill="#2b2273"/><path d="M159.8,135.88h15.1v3.355H159.8Z" transform="translate(-120.129 -101.161)" fill="#2b2273"/><path d="M159.8,167.88h21.806v3.355H159.8Z" transform="translate(-120.129 -126.452)" fill="#2b2273"/><path d="M82.091,197.1l-2.684-2.011-8.9,11.871-1.988-1.988-2.372,2.372,4.722,4.724Z" transform="translate(-46.111 -147.955)" fill="#2b2273"/><path d="M159.8,199.88h21.806v3.355H159.8Z" transform="translate(-120.129 -151.742)" fill="#2b2273"/><path d="M247.8,231.88h3.355v3.355H247.8Z" transform="translate(-189.677 -177.032)" fill="#2b2273"/><path d="M159.8,231.88h15.1v3.355H159.8Z" transform="translate(-120.129 -177.032)" fill="#2b2273"/><path d="M159.8,263.88h21.806v3.355H159.8Z" transform="translate(-120.129 -202.323)" fill="#2b2273"/><path d="M71.8,328.654H91.929V311.88H71.8Zm3.355-13.419H88.574V325.3H75.155Z" transform="translate(-50.581 -240.258)" fill="#2b2273"/><path d="M183.8,311.88h10.065v3.355H183.8Z" transform="translate(-139.097 -240.258)" fill="#2b2273"/><path d="M183.8,343.88h10.065v3.355H183.8Z" transform="translate(-139.097 -265.548)" fill="#2b2273"/><path d="M183.8,375.88h10.065v3.355H183.8Z" transform="translate(-139.097 -290.839)" fill="#2b2273"/></g></svg>