<svg xmlns="http://www.w3.org/2000/svg" width="104" height="104" viewBox="0 0 104 104"><g transform="translate(350.939 -554.968)"><path d="M14.093,893.032A5.032,5.032,0,1,0,9.061,888,5.038,5.038,0,0,0,14.093,893.032Zm0-6.71A1.677,1.677,0,1,1,12.416,888,1.679,1.679,0,0,1,14.093,886.323Z" transform="translate(-284.516 -259.226)" fill="#2b2273"/><path d="M-253.38,621.692a3.219,3.219,0,0,1,.686-3.528l2.441-2.442-7.119-7.119-2.444,2.442a3.237,3.237,0,0,1-3.591.658,3.2,3.2,0,0,1-1.983-2.966v-3.447h-3.44a29.716,29.716,0,0,0-1.486-7.8l19.411-19.411a13.452,13.452,0,0,0,3.967-9.575,13.555,13.555,0,0,0-13.538-13.539,13.451,13.451,0,0,0-9.573,3.965l-19.391,19.393a29.8,29.8,0,0,0-7.912-1.478A13.424,13.424,0,0,0-309,570.065a13.407,13.407,0,0,0-3.68.525,16.713,16.713,0,0,0-14.771-8.912,16.793,16.793,0,0,0-16.774,16.774,16.747,16.747,0,0,0,.445,3.788,10.079,10.079,0,0,0-7.154,9.632,10.075,10.075,0,0,0,10.065,10.065h12.168a30.412,30.412,0,0,0-.426,5.032,23.031,23.031,0,0,0,1.785,9.263L-342.312,631.2l-8.327,21.649a4.464,4.464,0,0,0-.3,1.615,4.513,4.513,0,0,0,4.507,4.507,4.517,4.517,0,0,0,1.617-.3l21.649-8.327,10.942-10.943a5.019,5.019,0,0,0-.134,1.119,5,5,0,0,0,1.308,3.355,4.992,4.992,0,0,0-1.308,3.355,5.025,5.025,0,0,0,3.757,4.848,10.229,10.229,0,0,0,9.662,6.894,10.229,10.229,0,0,0,9.662-6.894,5.025,5.025,0,0,0,3.757-4.848c0-.126-.029-.243-.037-.366l2.083,2.083,2.444-2.442a3.237,3.237,0,0,1,3.59-.661,3.21,3.21,0,0,1,1.984,2.971v3.447h10.064v-3.447a3.229,3.229,0,0,1,2.05-3,3.215,3.215,0,0,1,3.526.686l2.442,2.442,7.119-7.119-2.441-2.442a3.244,3.244,0,0,1-.659-3.591,3.2,3.2,0,0,1,2.967-1.984h3.447V623.742h-3.447a3.227,3.227,0,0,1-2.994-2.05Zm-25.134,4.945a50.067,50.067,0,0,0,5.245-5.722,8.286,8.286,0,0,1,2.847-.528,8.4,8.4,0,0,1,8.387,8.387,8.4,8.4,0,0,1-8.387,8.387,8.4,8.4,0,0,1-8.387-8.387,8.408,8.408,0,0,1,.3-2.137ZM-276.5,586.9l7.755-7.756,6.015,6.015-8.959,8.959A30.44,30.44,0,0,0-276.5,586.9Zm1.74-18.515,2.66-2.66,14.4,14.4-2.66,2.66Zm14.283-10.065a10.2,10.2,0,0,1,10.184,10.184,10.118,10.118,0,0,1-2.982,7.2l-2.05,2.05-14.4-14.4,2.05-2.05a10.122,10.122,0,0,1,7.2-2.982Zm-16.655,12.436,6.015,6.015-7.751,7.751a30.407,30.407,0,0,0-7.215-4.816Zm5.032,36.209c0,8.728-4.395,13.015-9.048,17.552-3.2,3.125-6.495,6.356-8.411,11.064a4.964,4.964,0,0,0-.993-.1h-6.71V627.1a5.038,5.038,0,0,0-5.032-5.032h-3.355a1.679,1.679,0,0,1-1.677-1.677,1.679,1.679,0,0,1,1.677-1.677h16.774a5.038,5.038,0,0,0,5.032-5.032,5.038,5.038,0,0,0-5.032-5.032h-13.419a1.679,1.679,0,0,1-1.677-1.677v-5.032h8.387a8.4,8.4,0,0,0,8.387-8.387,8.4,8.4,0,0,0-8.387-8.387c-.047,0-.091.013-.138.013a13.21,13.21,0,0,0,.138-1.691,13.436,13.436,0,0,0-.4-3.18,26.982,26.982,0,0,1,23.88,26.664ZM-309,640.516a1.679,1.679,0,0,1,1.677-1.677h16.774a1.679,1.679,0,0,1,1.677,1.677,1.679,1.679,0,0,1-1.677,1.677h-16.774A1.679,1.679,0,0,1-309,640.516Zm-21.112,0,12.331-12.331a30.45,30.45,0,0,1,5.391,6.638L-324.1,646.532Zm-17.469-48.645a6.716,6.716,0,0,1,6.71-6.71,6.716,6.716,0,0,1,6.71,6.71h3.355a10.068,10.068,0,0,0-9.635-10.043,13.406,13.406,0,0,1-.429-3.377,13.435,13.435,0,0,1,13.419-13.419,13.377,13.377,0,0,1,11.69,6.879,13.43,13.43,0,0,0-6.574,10.106,6.709,6.709,0,0,0-5.116,6.5h3.355a3.358,3.358,0,0,1,3.355-3.355,3.358,3.358,0,0,1,3.355,3.355h3.355a6.7,6.7,0,0,0-4.923-6.438A10.072,10.072,0,0,1-309,573.42a10.075,10.075,0,0,1,10.065,10.064,10.026,10.026,0,0,1-.369,2.588,8.37,8.37,0,0,0-4.663,7.476h3.355a5.038,5.038,0,0,1,5.032-5.032,5.038,5.038,0,0,1,5.032,5.032,5.038,5.038,0,0,1-5.032,5.032h-45.29A6.716,6.716,0,0,1-347.584,591.871Zm40.258,10.065v5.032A5.038,5.038,0,0,0-302.294,612h13.419a1.679,1.679,0,0,1,1.677,1.677,1.679,1.679,0,0,1-1.677,1.677h-16.774a5.038,5.038,0,0,0-5.032,5.032,5.038,5.038,0,0,0,5.032,5.032h3.355a1.679,1.679,0,0,1,1.677,1.677v8.387h-6.71a4.964,4.964,0,0,0-.993.1c-1.916-4.708-5.207-7.939-8.411-11.064-4.653-4.537-9.048-8.825-9.048-17.552a27.039,27.039,0,0,1,.517-5.032Zm-12.854,23.9-12.307,12.307-6.015-6.015,12.8-12.8a37.734,37.734,0,0,0,5.524,6.507Zm-20.055,9.3,13.124,13.124-11.111,4.274-6.287-6.287Zm-5.782,20.4a1.178,1.178,0,0,1-1.567-1.075,1.183,1.183,0,0,1,.076-.413l1.681-4.371,4.178,4.178Zm47.078.077a6.892,6.892,0,0,1-5.911-3.355h11.822a6.892,6.892,0,0,1-5.911,3.355Zm8.387-6.71h-16.774A1.679,1.679,0,0,1-309,647.226a1.679,1.679,0,0,1,1.677-1.677h16.774a1.679,1.679,0,0,1,1.677,1.677A1.679,1.679,0,0,1-290.552,648.9Zm40.258-18.452h-.092a6.565,6.565,0,0,0-6.091,4.113,6.562,6.562,0,0,0,1.409,7.189l.07.07-2.375,2.375-.07-.07a6.573,6.573,0,0,0-7.245-1.387,6.548,6.548,0,0,0-4.058,6.069v.092H-272.1v-.092a6.569,6.569,0,0,0-4.113-6.092,6.557,6.557,0,0,0-7.191,1.411l-.07.07-2.273-2.273a4.917,4.917,0,0,0,.228-1.411,4.983,4.983,0,0,0-1.127-3.135,21.631,21.631,0,0,1,4.583-7.149,11.752,11.752,0,0,0,11.641,10.284,11.756,11.756,0,0,0,11.742-11.742,11.756,11.756,0,0,0-11.742-11.742c-.164,0-.324.017-.486.023a22.009,22.009,0,0,0,2.112-8.411h.052v.092a6.564,6.564,0,0,0,4.111,6.091,6.553,6.553,0,0,0,7.191-1.409l.07-.07,2.375,2.375-.07.07a6.584,6.584,0,0,0-1.387,7.243,6.545,6.545,0,0,0,6.069,4.059h.092Z" fill="#2b2273"/></g></svg>