<svg xmlns="http://www.w3.org/2000/svg" width="221.189" height="224.624" viewBox="0 0 221.189 224.624"><g transform="translate(-4392.636 -421.697)"><g transform="translate(4392.636 421.697)"><rect width="188.077" height="133.915" transform="translate(0 90.705)" fill="#102048"/><g transform="translate(16.542 0)"><path d="M5407.91,465.057h-34.794V433.3a11.6,11.6,0,0,1,23.2-.106v.106l-.009,20.158c0,.1,0,.2.009.3v.611l.035-.018A11.588,11.588,0,0,0,5407.91,465.057Z" transform="translate(-5218.063 -421.697)" fill="#86a7ff"/><path d="M5529.041,563.12v7.017a11.591,11.591,0,0,1-23.148.885Z" transform="translate(-5327.602 -538.369)" fill="#d3dfff"/><path d="M4653.812,421.7c-.248,0-.487.009-.726.027-.159.009-.31.018-.46.035-.168.018-.328.035-.5.062-.1.009-.195.027-.292.044-.124.018-.248.044-.363.071-.177.036-.345.071-.522.115-.248.062-.5.133-.743.221-.124.035-.248.08-.363.124s-.239.088-.354.133a14.327,14.327,0,0,0-.912.416c-.036.018-.08.036-.124.062-.124.062-.248.133-.372.2a10.6,10.6,0,0,0-1.39.929c-.124.1-.256.2-.372.3-.142.115-.265.23-.4.354s-.257.248-.38.372a11.784,11.784,0,0,0-.974,1.124c-.132.177-.257.345-.381.522a13.182,13.182,0,0,0-1.018,1.867c-.07.159-.132.327-.2.5a13.266,13.266,0,0,0-.469,1.557c-.035.186-.071.363-.106.54-.062.363-.115.734-.142,1.106V595.112h-155.1V439.784a18.086,18.086,0,0,1,18.087-18.087Z" transform="translate(-4487.158 -421.697)" fill="#d3dfff"/><g transform="translate(18.335 16.583)"><rect width="117.692" height="6.194" fill="#adc3ff"/><rect width="108.573" height="6.194" transform="translate(0 18.141)" fill="#adc3ff"/><rect width="102.848" height="6.194" transform="translate(0 36.281)" fill="#adc3ff"/><rect width="117.692" height="6.194" transform="translate(0 54.422)" fill="#adc3ff"/><rect width="63.805" height="6.194" transform="translate(45.48 72.783)" fill="#adc3ff"/></g><path d="M4914.367,1039.925a2.107,2.107,0,0,1-1.8-.853,3.959,3.959,0,0,1-.482-2.475l.6-16.007.884.033-.6,16.007a3.171,3.171,0,0,0,.314,1.923c.752,1.038,2.561.14,2.917-.051,1.782-.956,3.062-2.754,4.3-4.494,1.376-1.933,2.8-3.933,4.95-4.872,1.276-.558,2.215.26,2.97.914a3.821,3.821,0,0,0,1.261.849,6.327,6.327,0,0,0,3.431-.269,7.979,7.979,0,0,1,3.247-.387,8.825,8.825,0,0,1,2.64.955,4.939,4.939,0,0,0,3.662.726,20.73,20.73,0,0,0,5.73-2.758c.528-.323,1.054-.646,1.585-.955,2.046-1.189,5.122-2.688,8.182-1.987l-.2.862c-2.76-.631-5.625.775-7.541,1.89-.524.305-1.046.624-1.567.944a21.377,21.377,0,0,1-5.985,2.864,5.8,5.8,0,0,1-4.262-.793,8.116,8.116,0,0,0-2.38-.874,7.293,7.293,0,0,0-2.89.368,7.086,7.086,0,0,1-3.907.262,4.5,4.5,0,0,1-1.589-1.028c-.79-.684-1.308-1.087-2.037-.773-1.926.842-3.216,2.655-4.582,4.575-1.3,1.822-2.636,3.707-4.6,4.76A4.971,4.971,0,0,1,4914.367,1039.925Z" transform="translate(-4837.709 -915.777)" fill="#102048"/><path d="M4642.255,940.359v77.1h-155.1V933.643l48.449,40.307a12.256,12.256,0,0,0,9.627,2.593,18.436,18.436,0,0,1,3.053-.168l33.024.929a18.78,18.78,0,0,1,3.38.416,12.147,12.147,0,0,0,9.832-2.026Z" transform="translate(-4487.158 -844.046)" fill="#86a7ff" opacity="0.3"/></g><g transform="translate(0 90.703)"><path d="M4463.369,995.482l-1.292,1.434-58.368,64.722-11.053,12.247V939.963Z" transform="translate(-4392.653 -939.963)" fill="#7d69ed"/><path d="M5133.938,939.977l-70.716,55.516,70.716,78.4Z" transform="translate(-4945.861 -939.974)" fill="#7d69ed"/><path d="M4462.078,1254.455l-58.368,64.722-11.053,2.434v-23.8c29.175-20.91,61.908-45.157,69.386-45.679Z" transform="translate(-4392.653 -1197.502)" fill="#5b4dad"/><path d="M5070.625,1254.455l58.368,64.722,11.052,2.434v-23.8c-29.175-20.91-61.907-45.157-69.384-45.679Z" transform="translate(-4951.969 -1197.502)" fill="#5b4dad"/><path d="M4580.712,1322.371H4392.636l.035-17.617,64.808-58.792a18.483,18.483,0,0,1,12.419-4.794h33.039a18.485,18.485,0,0,1,12.271,4.661l65.689,58.317Z" transform="translate(-4392.636 -1188.454)" fill="#7d69ed"/></g></g><g transform="translate(4542.336 581.716)"><circle cx="22.841" cy="22.841" r="22.841" transform="translate(0 32.303) rotate(-45)" fill="#5b4dad" opacity="0.4"/><g transform="translate(6.884 0)"><circle cx="22.841" cy="22.841" r="22.841" transform="translate(0 32.303) rotate(-45)" fill="#df9a71"/><g transform="translate(20.381 19.926)"><path d="M5366.593,1445.358a3.86,3.86,0,0,1-2.866-1.274l-8.08-8.923a1.877,1.877,0,1,1,2.783-2.52l8.08,8.922a.111.111,0,0,0,.108.038.106.106,0,0,0,.091-.07l8.7-19.8a1.877,1.877,0,1,1,3.438,1.509l-8.7,19.8a3.861,3.861,0,0,1-2.926,2.267A3.928,3.928,0,0,1,5366.593,1445.358Z" transform="translate(-5355.16 -1420.604)" fill="#fff"/></g></g></g></g></svg>