<svg xmlns="http://www.w3.org/2000/svg" width="108.736" height="43.791" viewBox="0 0 108.736 43.791"><g transform="translate(-365 176.416)"><path d="M937.05,533.173v-.9l4.156-5.927h-3.951V524.91h6.2v1.052l-4.112,5.885h4.181v1.336Z" transform="translate(-572.05 -679.289)" fill="#fff"/><path d="M976.21,533.173l3.158-8.263h1.9l3.141,8.263h-1.8l-.775-1.99h-3.05l-.768,1.99Zm2.835-3.324h2.529l-1.272-3.321Z" transform="translate(-601.54 -679.289)" fill="#fff"/><path d="M1024.68,533.173V524.91h3.951a2.677,2.677,0,0,1,2.089.741,2.937,2.937,0,0,1,.667,2.02,2.409,2.409,0,0,1-.43,1.437,2.376,2.376,0,0,1-1.213.872,1.482,1.482,0,0,1,.328.361,3.035,3.035,0,0,1,.247.514l1,2.309h-1.8l-.975-2.223a.988.988,0,0,0-.281-.4.874.874,0,0,0-.514-.116H1026.4v2.734Zm1.729-4.171h1.783a1.679,1.679,0,0,0,1.064-.3,1.248,1.248,0,0,0,.385-1.02,1.351,1.351,0,0,0-.333-1.013,1.423,1.423,0,0,0-1.015-.321h-1.884Z" transform="translate(-638.04 -679.289)" fill="#fff"/><path d="M1066.13,533.173v-.9l4.156-5.927h-3.951V524.91h6.208v1.052l-4.119,5.885h4.183v1.336Z" transform="translate(-669.254 -679.289)" fill="#fff"/><path d="M1105.29,533.173l3.156-8.263h1.9l3.141,8.263h-.23a2.656,2.656,0,0,0-.622.622,1.218,1.218,0,0,0-.247.711.4.4,0,0,0,.161.37.741.741,0,0,0,.417.1,1.483,1.483,0,0,0,.338-.039,1.062,1.062,0,0,0,.289-.1v.988a1.922,1.922,0,0,1-.469.126,3.646,3.646,0,0,1-.622.052,1.849,1.849,0,0,1-1.032-.289.973.973,0,0,1-.442-.877,1.827,1.827,0,0,1,.247-.919,2.223,2.223,0,0,1,.692-.741h-.282l-.783-1.99h-3.04l-.77,1.99Zm2.835-3.324h2.526l-1.269-3.321Z" transform="translate(-698.744 -679.289)" fill="#fff"/><path d="M1153.75,533.173V524.91h3.457a3.773,3.773,0,0,1,2.8.956,4.474,4.474,0,0,1,.943,3.21,4.4,4.4,0,0,1-.931,3.109,3.718,3.718,0,0,1-2.815.988Zm1.729-1.336h1.482a2.986,2.986,0,0,0,1.235-.225,1.481,1.481,0,0,0,.741-.82,4.619,4.619,0,0,0,.247-1.711,4.906,4.906,0,0,0-.23-1.706,1.393,1.393,0,0,0-.719-.81,3.224,3.224,0,0,0-1.284-.217h-1.482Z" transform="translate(-735.237 -679.289)" fill="#fff"/><path d="M1197.18,533.173v-.9l4.156-5.927h-3.951V524.91h6.208v1.052l-4.117,5.885h4.181v1.336Z" transform="translate(-767.942 -679.289)" fill="#fff"/><path d="M1236.34,533.173l3.156-8.263h1.9l3.144,8.263h-1.8l-.78-1.99h-3.042l-.768,1.99Zm2.835-3.324h2.529l-1.272-3.321Z" transform="translate(-797.431 -679.289)" fill="#fff"/><path d="M1284.81,533.173V524.91h1.5l3.914,5.5v-5.5h1.729v8.263h-1.5l-3.912-5.5v5.5Z" transform="translate(-833.932 -679.289)" fill="#fff"/><path d="M1330.05,533.173V524.91h1.729v8.263Z" transform="translate(-868 -679.289)" fill="#fff"/><path d="M1353.37,533.173V524.91h5.927v1.348h-4.2v2.116h3.721v1.333H1355.1v2.139h4.2v1.336Z" transform="translate(-885.561 -679.289)" fill="#fff"/><path d="M1020.83,587.255V579h3.457a3.779,3.779,0,0,1,2.8.953,4.462,4.462,0,0,1,.941,3.21,4.4,4.4,0,0,1-.928,3.109,3.738,3.738,0,0,1-2.815.988Zm1.729-1.336h1.482a3.038,3.038,0,0,0,1.235-.222,1.481,1.481,0,0,0,.741-.822,4.622,4.622,0,0,0,.247-1.711,4.839,4.839,0,0,0-.205-1.694,1.38,1.38,0,0,0-.719-.808,3.156,3.156,0,0,0-1.282-.22h-1.482Z" transform="translate(-635.141 -720.021)" fill="#fff"/><path d="M1065.29,587.255V579h3.966a2.677,2.677,0,0,1,2.089.741,2.939,2.939,0,0,1,.667,2.022,2.4,2.4,0,0,1-.43,1.435,2.376,2.376,0,0,1-1.213.872,1.531,1.531,0,0,1,.328.361,3.028,3.028,0,0,1,.247.514l.988,2.309h-1.776l-.988-2.222a.988.988,0,0,0-.281-.4.874.874,0,0,0-.514-.116h-1.358v2.734Zm1.729-4.171h1.783a1.679,1.679,0,0,0,1.064-.3,1.246,1.246,0,0,0,.385-1.017,1.358,1.358,0,0,0-.333-1.015,1.423,1.423,0,0,0-1.015-.321h-1.884Z" transform="translate(-668.622 -720.021)" fill="#fff"/><path d="M1111.237,587.4a4.092,4.092,0,0,1-2.7-.827,2.93,2.93,0,0,1-.988-2.405V579h1.729v5.028a1.831,1.831,0,0,0,.511,1.417,2.084,2.084,0,0,0,1.449.467,2.057,2.057,0,0,0,1.445-.467,1.834,1.834,0,0,0,.506-1.417V579h1.729v5.156a2.96,2.96,0,0,1-.988,2.405A4.1,4.1,0,0,1,1111.237,587.4Z" transform="translate(-700.445 -720.021)" fill="#fff"/><path d="M1153.44,587.255V579h1.729v3.5l3.186-3.5h1.988l-2.99,3.346,3.144,4.914h-1.847l-2.373-3.815-1.1,1.193v2.618Z" transform="translate(-735.003 -720.021)" fill="#fff"/><path d="M1197.28,587.255V579h1.729v8.26Z" transform="translate(-768.017 -720.021)" fill="#fff"/><path d="M1220.61,587.255V579h5.927v1.346h-4.2v2.111h3.719v1.333h-3.719v2.124h4.2v1.336Z" transform="translate(-785.586 -720.021)" fill="#fff"/><path d="M1259.87,587.255V579h1.746l2.425,4.964,2.423-4.964h1.729v8.26h-1.729v-5.381l-1.924,3.951h-.988l-1.936-3.951v5.376Z" transform="translate(-815.151 -720.021)" fill="#fff"/><path d="M154.668,343.8l-19.748-8.008.558-1.373,19.19,7.781,19.193-7.781.556,1.373Z" transform="translate(263.398 -510.836)" fill="#fff"/><path d="M1095.016,456.264a8,8,0,0,1-7.334-11.174l1.358.59a6.516,6.516,0,1,0,12.071,4.9l1.385.526A8.038,8.038,0,0,1,1095.016,456.264Z" transform="translate(-684.987 -619.18)" fill="#fff"/><path d="M1106.294,456.785A4.3,4.3,0,0,1,1102,452.5a4.248,4.248,0,0,1,.4-1.805l1.343.622a2.819,2.819,0,1,0,5.22,2.114l1.4.494a4.3,4.3,0,0,1-4.067,2.865Z" transform="translate(-696.266 -623.397)" fill="#fff"/><path d="M1161.677,456.264a8.031,8.031,0,0,1-7.478-5.166l1.385-.524a6.509,6.509,0,1,0,12.058-4.894l1.358-.59a8,8,0,0,1-7.337,11.174Z" transform="translate(-735.575 -619.18)" fill="#fff"/><path d="M1172.122,456.747a4.3,4.3,0,0,1-4.052-2.877l1.4-.494a2.813,2.813,0,0,0,5.467-.931,2.772,2.772,0,0,0-.262-1.18l1.346-.625a4.3,4.3,0,0,1-3.9,6.1Z" transform="translate(-746.02 -623.359)" fill="#fff"/><path d="M197.4,388.254l-5.737-5.737,1.05-1.047,4.687,4.687,4.69-4.687,1.047,1.047Z" transform="translate(220.67 -546.267)" fill="#fff"/></g></svg>