<svg xmlns="http://www.w3.org/2000/svg" width="198.39" height="22.816" viewBox="0 0 198.39 22.816"><g transform="translate(-1598.988 -365.426)"><rect width="5.364" height="17.141" transform="translate(1598.988 365.841)" fill="#fff"/><path d="M1626.951,365.538a9.327,9.327,0,0,0-2.821.468,10.211,10.211,0,0,0-2.647,1.263h-.143a3.607,3.607,0,0,0-1.592-1.3,6.1,6.1,0,0,0-2.422-.433,6.753,6.753,0,0,0-2.25.416,12.661,12.661,0,0,0-2.457,1.212h-.1l-.173-1.28H1607.5v17.1h5.191V370.626a8.1,8.1,0,0,1,1.246-.31,7.044,7.044,0,0,1,1.177-.105,2.468,2.468,0,0,1,1.522.381,1.491,1.491,0,0,1,.485,1.246v11.144h5.191V370.626a8.1,8.1,0,0,1,1.246-.31,7.045,7.045,0,0,1,1.177-.105,2.472,2.472,0,0,1,1.523.381,1.493,1.493,0,0,1,.484,1.246v11.144h5.2V371.145a6.209,6.209,0,0,0-1.229-4.222A4.769,4.769,0,0,0,1626.951,365.538Z" fill="#fff"/><path d="M1644.947,365.538a8.416,8.416,0,0,0-2.958.485,5.964,5.964,0,0,0-2.233,1.454h-.069l-.277-1.591h-4.57v22.356h5.191v-5.364a10.465,10.465,0,0,0,1.575.329,14,14,0,0,0,1.886.121q4.083,0,5.9-2.111t1.817-6.783q0-4.811-1.436-6.853T1644.947,365.538Zm.5,12.235q-.57.745-2.682.745a10.3,10.3,0,0,1-1.54-.1,4.329,4.329,0,0,1-1.194-.346v-7.3a5.455,5.455,0,0,1,1.367-.415,9.546,9.546,0,0,1,1.679-.139q1.833,0,2.388.814a6.876,6.876,0,0,1,.553,3.409,6.257,6.257,0,0,1-.569,3.328Z" fill="#fff"/><path d="M1661.2,366.041a11.132,11.132,0,0,0-2.544,1.159h-.069l-.173-1.314h-4.845v17.1h5.191v-11.94a9.828,9.828,0,0,1,1.661-.364,14.2,14.2,0,0,1,1.9-.121c.369,0,.674.006.917.017a4.144,4.144,0,0,1,.675.087v-5.018h-.269A8.314,8.314,0,0,0,1661.2,366.041Z" fill="#fff"/><path d="M1672.946,365.538q-4.188,0-6.126,2.147t-1.938,6.749q0,4.706,1.834,6.8t5.988,2.094a22,22,0,0,0,4.153-.38,8.853,8.853,0,0,0,2.8-.9v-4.119a20.922,20.922,0,0,1-2.734.5,26.158,26.158,0,0,1-3.392.224,4.63,4.63,0,0,1-2.665-.553,2.42,2.42,0,0,1-.761-1.973h10.1q.105-.864.139-1.522t.035-1.765q0-4.084-1.679-5.694T1672.946,365.538Zm2.734,7.234h-5.572a3.142,3.142,0,0,1,.588-2.232,3.278,3.278,0,0,1,2.25-.572,3.836,3.836,0,0,1,2.163.416,2.056,2.056,0,0,1,.571,1.627Z" fill="#fff"/><path d="M1692.119,372.461l-4.119-.554a.847.847,0,0,1-.536-.225.683.683,0,0,1-.191-.5,1,1,0,0,1,.5-1.021,5.556,5.556,0,0,1,1.956-.225q1.419,0,2.7.07a21.4,21.4,0,0,1,2.146.207v-4.325q-1.35-.209-2.561-.278c-.808-.045-1.685-.07-2.63-.07a8.557,8.557,0,0,0-5.434,1.471,5.281,5.281,0,0,0-1.834,4.378,5.513,5.513,0,0,0,.847,3.341,3.844,3.844,0,0,0,2.717,1.367l4.257.553a.7.7,0,0,1,.45.225.673.673,0,0,1,.173.468,1.19,1.19,0,0,1-.5,1.124,4.216,4.216,0,0,1-1.92.3,31.077,31.077,0,0,1-3.133-.156,19.071,19.071,0,0,1-2.4-.364v4.5a19.85,19.85,0,0,0,2.786.433q1.644.156,3.686.156,3.7,0,5.191-1.505t1.488-4.829a5.187,5.187,0,0,0-.813-3.236A4.2,4.2,0,0,0,1692.119,372.461Z" fill="#fff"/><path d="M1707.346,372.461l-4.119-.554a.858.858,0,0,1-.537-.225.683.683,0,0,1-.189-.5,1,1,0,0,1,.5-1.021,5.556,5.556,0,0,1,1.956-.225q1.419,0,2.7.07a21.4,21.4,0,0,1,2.146.207v-4.325q-1.35-.209-2.561-.278c-.808-.045-1.685-.07-2.63-.07a8.557,8.557,0,0,0-5.434,1.471,5.28,5.28,0,0,0-1.834,4.378,5.506,5.506,0,0,0,.848,3.341,3.84,3.84,0,0,0,2.717,1.367l4.256.553a.7.7,0,0,1,.45.225.669.669,0,0,1,.173.468,1.189,1.189,0,0,1-.5,1.124,4.216,4.216,0,0,1-1.92.3q-1.569,0-3.132-.156a19.169,19.169,0,0,1-2.406-.364v4.5a19.89,19.89,0,0,0,2.787.433q1.644.156,3.685.156,3.7,0,5.191-1.505t1.489-4.829a5.187,5.187,0,0,0-.813-3.236A4.2,4.2,0,0,0,1707.346,372.461Z" fill="#fff"/><path d="M1727.659,375.74h-4.974v-1.583h6.668v8.112a12.431,12.431,0,0,1-2.778.71,21.676,21.676,0,0,1-3.64.347q-4.253,0-5.878-2t-1.625-6.919q0-4.586,1.959-6.781t6.1-2.2q1.446,0,2.751.071a20.975,20.975,0,0,1,2.168.208v1.583q-1.11-.108-2.4-.166t-2.515-.055q-3.36,0-4.794,1.709t-1.431,5.627a19.241,19.241,0,0,0,.237,3.321,6.019,6.019,0,0,0,.736,2.126,3.388,3.388,0,0,0,1.752,1.43,9.407,9.407,0,0,0,3.222.432,16.9,16.9,0,0,0,2.167-.166,22.013,22.013,0,0,0,2.28-.418Z" fill="#79e2ff"/><path d="M1734.745,376.687v6.446h-1.778V365.709h5.778q3.586,0,5.171,1.251a4.863,4.863,0,0,1,1.583,4.056,5.835,5.835,0,0,1-1.057,3.669,5.074,5.074,0,0,1-3.2,1.778l4.668,6.67h-2.139l-4.418-6.446Zm8.948-5.671a3.286,3.286,0,0,0-1.139-2.819,6.534,6.534,0,0,0-3.809-.847h-4V375.1h4a5.905,5.905,0,0,0,3.767-.971,3.808,3.808,0,0,0,1.181-3.114Z" fill="#79e2ff"/><path d="M1763.507,374.38q0,4.725-1.793,6.836t-5.849,2.112q-4.419,0-6.045-1.946t-1.625-7q0-4.725,1.791-6.838t5.879-2.112q4.389,0,6.017,1.946T1763.507,374.38Zm-12.59,5.447a3.446,3.446,0,0,0,1.723,1.4,9.326,9.326,0,0,0,3.225.431q3.279,0,4.557-1.639t1.279-5.641a20.357,20.357,0,0,0-.224-3.335,6.236,6.236,0,0,0-.694-2.112,3.259,3.259,0,0,0-1.681-1.431,9.272,9.272,0,0,0-3.237-.431q-3.309,0-4.585,1.639t-1.278,5.67a20.559,20.559,0,0,0,.221,3.335,6.343,6.343,0,0,0,.694,2.114Z" fill="#79e2ff"/><path d="M1778.791,376.3V365.709h1.78V376.3q0,3.641-1.667,5.335t-5.2,1.7q-3.528,0-5.142-1.668t-1.612-5.363V365.709h1.78V376.3q0,2.946,1.139,4.154a5.1,5.1,0,0,0,3.835,1.209q2.778,0,3.932-1.209T1778.791,376.3Z" fill="#79e2ff"/><path d="M1786.6,377.269v5.863h-1.778V365.709h5.779q3.585,0,5.17,1.307a5.244,5.244,0,0,1,1.583,4.279,5.757,5.757,0,0,1-1.639,4.5,7.359,7.359,0,0,1-5.031,1.473Zm8.948-5.975a3.673,3.673,0,0,0-1.139-3.03,6.15,6.15,0,0,0-3.808-.915h-4v8.335h4a5.6,5.6,0,0,0,3.779-1.042,4.278,4.278,0,0,0,1.168-3.347Z" fill="#79e2ff"/></g></svg>