<svg xmlns="http://www.w3.org/2000/svg" width="315.095" height="168.96" viewBox="0 0 315.095 168.96"><g transform="translate(190.199 6.752)"><path d="M-148.687-130.265A11.412,11.412,0,0,1-160.1-141.677a134.221,134.221,0,0,0-94.1-128.5,11.412,11.412,0,0,1-7.442-14.32,11.41,11.41,0,0,1,14.32-7.444,156.8,156.8,0,0,1,78.941,56.263,156.258,156.258,0,0,1,31.1,94A11.412,11.412,0,0,1-148.687-130.265Z" transform="translate(262.172 292.473)" fill="#4faf52"/></g><g transform="translate(34.464)"><path d="M-353.114-222.2a11.371,11.371,0,0,1-7.355-2.692,11.412,11.412,0,0,1-1.359-16.082A157.254,157.254,0,0,1-241.437-296.91c4.174,0,8.37.166,12.471.493A11.41,11.41,0,0,1-218.5-284.135a11.415,11.415,0,0,1-12.282,10.469c-3.5-.278-7.088-.42-10.657-.42a134.475,134.475,0,0,0-102.951,47.836A11.388,11.388,0,0,1-353.114-222.2Z" transform="translate(364.52 296.91)" fill="#f38200"/></g><g transform="translate(0 79.669)"><path d="M-375.758-155.261a11.412,11.412,0,0,1-11.412-11.412,157.875,157.875,0,0,1,17.232-71.666,11.41,11.41,0,0,1,15.361-4.954,11.413,11.413,0,0,1,4.953,15.361,133.1,133.1,0,0,0-14.722,61.26A11.412,11.412,0,0,1-375.758-155.261Z" transform="translate(387.17 244.552)" fill="#2b2273"/></g></svg>