<svg xmlns="http://www.w3.org/2000/svg" width="507.753" height="407.188" viewBox="0 0 507.753 407.188"><g transform="translate(93.923 60.842)"><rect width="369.238" height="15.103" transform="translate(0 334.777) rotate(-65.049)" fill="#2b2273"/></g><g transform="translate(0 0)"><path d="M255.206,1211.25l21.008-89.282,107.365,9.994,67.379-144.821L344.187,810.386l173.689,58.12,81.991,280.8-14.5,4.232L505.593,880.319,378.357,837.743l89.686,148.474-75.264,161.771L287.9,1138.225l-11.449,48.652,45.979-17.719,5.43,14.089Z" transform="translate(-255.206 -810.386)" fill="#2b2273"/></g><g transform="translate(21.336 110.585)"><path d="M340.616,1150.926,263.683,1068.6l11.034-10.314,70.9,75.867,228.533-55.788,87.362-224.048,14.069,5.486-90.216,231.368Z" transform="translate(-263.683 -854.322)" fill="#2b2273"/></g><g transform="translate(286.154 104.526)"><path d="M485.474,931.154l-2.161-14.944,70.434-10.188-45.869-36.5L375.208,930.542l-6.31-13.72L510.01,851.915,590.5,915.966Z" transform="translate(-368.898 -851.915)" fill="#2b2273"/></g></svg>