<svg xmlns="http://www.w3.org/2000/svg" width="16.362" height="25.333" viewBox="0 0 16.362 25.333"><g transform="translate(16.362 25.333) rotate(180)"><g transform="translate(0 0)"><path d="M11.6,14.705,16.155,3.768A2.681,2.681,0,0,0,15.168.506L14.543.089a.528.528,0,0,0-.775.226L9.5,9.964l-1.056,2.03A3.128,3.128,0,0,0,7.4,14.706L6.211,17.4a4.13,4.13,0,0,0-1.988-.51,4.222,4.222,0,1,0,4.222,4.222A5.966,5.966,0,0,1,9.5,17.628C10.929,17.543,11.817,15.268,11.6,14.705ZM4.222,23.222a2.111,2.111,0,1,1,2.111-2.111A2.114,2.114,0,0,1,4.222,23.222ZM9.5,15.834a1.056,1.056,0,1,1,1.056-1.056A1.057,1.057,0,0,1,9.5,15.834Z" fill="#df9a71"/></g></g></svg>