<svg xmlns="http://www.w3.org/2000/svg" width="21.49" height="21.492" viewBox="0 0 21.49 21.492"><g transform="translate(-1.5 -1.49)"><path d="M12.247,22.982q-.2,0-.4-.007A10.746,10.746,0,1,1,16.618,2.421a.977.977,0,1,1-.8,1.785A8.791,8.791,0,0,0,4.87,17.021a8.791,8.791,0,0,0,16.167-4.78v-.9a.977.977,0,0,1,1.954,0v.9a10.748,10.748,0,0,1-10.743,10.74Z" transform="translate(0)" fill="#df9a71"/><path d="M15.907,16.232a.977.977,0,0,1-.691-.286l-2.93-2.93a.977.977,0,0,1,1.381-1.381l2.239,2.239,9.078-9.087a.977.977,0,0,1,1.382,1.381L16.6,15.945a.977.977,0,0,1-.691.286Z" transform="translate(-3.662 -1.05)" fill="#df9a71"/></g></svg>